<?xml version="1.0" encoding="utf-8"?>

<!DOCTYPE svg PUBLIC "-//W3C//DTD SVG 1.1//EN" "http://www.w3.org/Graphics/SVG/1.1/DTD/svg11.dtd">
<svg version="1.1" id="Layer_1" xmlns="http://www.w3.org/2000/svg" xmlns:xlink="http://www.w3.org/1999/xlink" x="0px" y="0px"
	 viewBox="0 0 1054.129 1702.84" enable-background="new 0 0 1054.129 1702.84" xml:space="preserve">
<g>
	<path d="M658.619,75.338c34.51-13.85,78.777-21.816,109.772-0.878c1.689,1.462,3.451,0.526,8.076-2.163
		c7.604,0.471,7.174-2.24,14.181,7.382c0.319,1.867,1.014,3.639,1.78,5.363c0.112,1.221,0.168,2.506,0.95,3.535
		c0.008,1.381,0,2.769,0.024,4.166c5.483,2.471,16.197,17.881,18.028,19.792c0.096,0.271,0.295,0.798,0.391,1.061
		c5.112,6.398,14.391,26.111,14.748,35.593c1.369,1.898,0.513,1.916,0.814,20.765c-0.247,0.295-0.734,0.886-0.974,1.181
		c-0.104,2.003,0.535,4.246-0.654,6.041c-1.077,9.237-6.341,15.749-7.382,18.283c-3.823,4.541-7.135,9.513-11.58,13.495
		c-1.152,1.879-14.559,17.219-19.105,20.247c-3.918,2.099-8.435,2.578-12.809,2.258c1.352,7.875,4.974,8.574,5.483,12.418
		c-4.72-2.623-5.199-2.506-10.063-8.419c-0.168-0.63-0.487-1.891-0.646-2.522c-0.622,0.591-1.229,1.181-1.828,1.772
		c-2.104,0.92-9.403,8.267-10.383,10.335c-7.638,8.638-7.447,14.508-10.806,15.578c-1.508,1.117-3.112-0.072-4.517-0.71
		c-1.636-1.756-3.368-3.408-5.004-5.155c-3.783-0.144-6.169,2.969-8.491,5.435c-1.213,0.008-2.418,0.024-3.607,0.056
		c-0.535-0.615-1.053-1.229-1.564-1.828c-0.734,0.423-1.476,0.83-2.211,1.229c-0.319,0.367-0.958,1.101-1.277,1.46
		c-3.807,0.782-6.752-1.859-8.906-4.621c-6.478,1.651-5.842,3.824-9.672,5.722c-0.367,0.351-1.109,1.069-1.476,1.421
		c-1.732-0.008-3.456-0.008-5.163,0.032c-3.764-1.811-7.203-5.663-11.229-22.138c-0.91-1.229-1.724-2.506-2.546-3.775
		c-2.729-0.966-5.108-2.977-8.116-2.961c0.351,0.359,1.045,1.069,1.397,1.428c-0.295,3.049,0.391,6.121,1.66,8.89
		c0.016,1.006,0.048,2.019,0.088,3.041c0.811,1.214,2.522,8.913,2.634,10.407c0.176,0.311,0.527,0.934,0.702,1.245
		c1.121,7.793,3.966,12.941,5.435,19.026c0.168,0.2,0.503,0.583,0.67,0.782c0.479,2.977,2.362,5.523,2.841,8.539
		c0.479,1.006,0.974,2.027,1.453,3.057c0.303,2.011,1.644,3.679,1.963,5.698c0.934,2.043,2.322,3.926,2.713,6.185
		c0.905,1.844,6.904,14.114,8.212,15.738c3.653-3.607,4.743-2.614,6.919-3.855c0.966-0.056,1.947-0.096,2.937-0.128
		c2.45-1.077,5.068-1.708,7.558-2.697c0.734-1.828,1.692-3.591,2.059-5.546c0.67-0.742,1.365-1.46,2.075-2.171
		c1.532,0.04,3.072,0.064,4.621,0.096c0.495-1.46,0.974-2.929,1.221-4.453c2.41-0.008,4.836,0,7.262,0.024
		c0.75-0.782,1.508-1.556,2.29-2.314c-0.223-1.708-0.734-3.344-1.229-4.98c-1.357-2.131-0.519-4.788-0.742-7.143
		c2.442-2.721,6.991-4.333,10.175-2.083c3.096-0.152,6.177-0.024,9.162,0.878c14.461-0.302,3.358,1.415,21.252-1.852
		c1.309-1.245,2.578-2.53,3.871-3.799c-0.04-0.455-0.112-1.365-0.152-1.82c1.764-1.772,3.99-3.192,6.584-3.104
		c1.149-1.077,2.761-0.686,4.19-0.838c1.804-1.365,4.126-0.423,6.161-0.99c4.732-1.828,10.032,0.431,14.788-1.269
		c2.29-0.415,4.637-0.064,6.967-0.168c-0.176-0.215-0.527-0.662-0.702-0.886c-2.634,0.223-6.113-1.157-8.028,1.165
		c-0.415-0.391-1.245-1.173-1.66-1.564c0.998-0.447,2.011-0.886,3.033-1.341c1.365-0.104,3.065,0.383,4.094-0.854
		c-2.019-0.152-4.03-0.112-6.041-0.064c-0.295,0.255-0.902,0.782-1.197,1.045c-2.897-0.607-5.578,0.543-8.388,0.806
		c-0.247,0.239-0.742,0.726-0.982,0.966c-0.662-0.064-1.987-0.184-2.641-0.247c3.575-3.507,12.799-6.744,17.405-7.182l0.99-0.599
		c15.472-0.453,15.573-0.058,16.671,0.806c0.998,0.016,2.003,0.04,3.033,0.08c0.798,0.328,19.339,5.352,29.656,15.291
		c3.511,1.852,5.634,5.467,8.739,7.885c1.564,0.678,2.737,1.947,3.966,3.104c0.072,0.335,0.224,1.014,0.303,1.349
		c7.587,8.247,5.709,3.114,18.77,23.104c1.776,4.02,4.906,9.177,5.562,12.115c5.825,13.425,6.987,25.004,7.621,27.509
		c0.431,2.793-0.83,5.977,0.838,8.475c-0.295,3.152,0.934,6.752-0.734,9.593c-0.12,2.243-0.088,4.501-0.032,6.751
		c-0.223,0.271-0.662,0.814-0.886,1.077c0.113,5.381-3.372,12.971-3.639,14.54c-5.916,10.478-6.113,10.518-6.113,10.518
		c-1.029,1.149-2.123,2.282-2.745,3.727c-4.804,4.764-9.265,9.944-14.86,13.822c-0.926,0.487-1.764,1.125-2.53,1.82
		c-0.271,0.112-0.83,0.327-1.101,0.431c-1.809,1.642-10.319,6.743-18.251,9.465c-0.184,0.184-0.543,0.559-0.726,0.75
		c-1.349,0.016-2.538,0.463-3.575,1.317c3.256,1.223,18.282,9.241,19.744,10.407c7.501,3.867,6.986,6.19,9.377,11.612
		c-0.495,2.865,1.213,5.395,0.974,8.228c-0.08,4.341,0.104,8.683-0.168,13.024c1.955-1.596,3.998-3.144,6.313-4.198
		c-0.407-2.522-1.923-4.629-3.152-6.791c3.176,0.841,5.52,2.484,6.52,3.144c1.46-1.365,2.873-2.785,4.381-4.11
		c-0.269-2.716-6.601-14.76-12.458-20.271c0.072-0.279,0.2-0.83,0.271-1.109c3.887-0.064,7.789-0.104,11.684,0.016
		c1.636,0.622,3.336,1.173,5.108,0.646c-1.708-3.137-4.375-9.706-11.125-16.288c5.419,0.088,10.854-0.247,16.256,0.144
		c0.335,0.176,0.998,0.519,1.325,0.694c0.926,0.016,1.875,0.016,2.833,0c-0.543-2.426-1.843-4.669-1.875-7.198
		c-0.215-0.303-0.646-0.918-0.87-1.221c0.008-1.349,0.032-2.681,0.08-4.014c1.764,0.287,2.769,1.852,4.086,2.905
		c3.551,2.626,7.39,4.828,11.197,7.063c-1.588-2.905-3.663-5.515-5.411-8.324c-1.213-2.314-3.456-3.783-5.115-5.73
		c2.378,0,4.78-0.128,7.167,0.088c1.596,0.479,3.216,0.862,4.924,0.854c3.532,1.774,3.146,0.757,7.542,2.985
		c-0.065-5.096-3.372-7.184-2.314-9.537c7.308,4.188,7.088,2.941,11.284,6.209c0.271,0.112,0.814,0.335,1.085,0.447
		c0.846,0.71,1.748,1.397,2.777,1.899c0.559,0.543,1.125,1.101,1.708,1.668c1.229-4.381,4.589-8.1,4.581-12.809
		c0.463-0.615,0.958-1.205,1.452-1.796c0.527,1.564,1.197,3.104,2.051,4.541c0.016,0.359,0.056,1.085,0.072,1.452
		c1.804,2.458,2.051,5.618,3.4,8.316c-0.024,0.662-0.08,1.995-0.104,2.658l0.774,0.024c0.16-0.519,0.471-1.564,0.63-2.091
		c0.479-0.766,0.974-1.516,1.516-2.251c1.245,0.056,2.442-0.335,3.416-1.133c2.123,1.221,4.062,2.729,5.107,5.028
		c-0.088,0.375-0.271,1.117-0.367,1.492c2.498-1.843,5.499-2.274,8.531-1.955c1.835,0.798,3.144,2.251,4.07,4.014
		c-0.04,1.78-0.04,3.567-0.008,5.355c-0.654,0.463-1.285,0.926-1.907,1.397c0.335,1.772,0.95,3.471,1.213,5.275
		c1.053-0.567,1.979-1.341,2.881-2.139c1.987,0,3.99,0,6.001-0.032c1.309,1.349,2.633,2.689,3.982,4.03
		c-0.048,1.716-0.048,3.44,0,5.163c-1.381,1.365-2.737,2.745-4.046,4.158c0.918,0.439,1.891,0.91,2.849,1.357
		c1.588-1.325,3.495-1.915,5.578-1.724c5.686,3.524,4.956,3.679,5.132,9.106c-0.367,0.742-0.71,1.508-1.029,2.282
		c-1.173,0.702-2.362,1.357-3.543,2.003c2.482,1.085,4.333,3.176,5.483,5.602c-0.08,1.979-0.072,3.958,0.016,5.953
		c-1.668,3.001-5.092,2.179-7.941,2.219c0.024,1.389,0.064,2.793,0.104,4.206c2.921-0.319,5.945,0.559,7.717,3.041
		c0.271,1.796,1.548,3.743,0.311,5.467c-0.024,2.737-2.809,3.312-4.916,3.99c2.817,1.197,4.9,3.607,6.336,6.265
		c-0.008,1.764-0.008,3.543,0.016,5.323c-1.014,1.006-2.019,2.019-3.009,3.041c-1.109-0.04-2.203-0.072-3.288-0.104
		c-0.814-0.471-1.628-0.886-2.538-1.046c1.987,2.067,0.543,4.517,0.136,6.887c0,0-9.097,6.456-9.098,6.456
		c3.112,0.958,4.445,3.926,5.698,6.632c-0.016,1.357-0.008,2.721,0.032,4.094c-1.053,1.053-2.099,2.115-3.104,3.208
		c-2.043-0.144-4.397,0.487-5.874-1.325c0.455,1.716,1.891,3.711,0.311,5.307c0,0.399-0.008,1.197-0.016,1.596
		c-7.213,6.432-10.289,2.689-12.952,2.873c0.104,2.655-5.382,14.038-13.32,20.59c0.064-1.852-0.351-3.879,0.862-5.451
		c0.072-1.915,0.072-3.823,0.032-5.722c-0.543-0.886-1.029-1.788-1.492-2.689c-0.71,3.304-2.873,6.033-5.076,8.499
		c-1.452,2.945-4.341,4.812-6.536,7.166c0.032-1.444,0.351-2.841,0.814-4.198c0.431-2.897,0.056-5.85,0.239-8.755
		c-3.505,2.822-15.139,6.472-18.69,6.528c-1.285,1.014-2.969,0.638-4.445,0.758c1.788-2.003,3.128-4.365,5.132-6.185
		c0.662-0.503,0.463-1.373,0.519-2.067c-0.982,0.918-1.915,1.875-2.881,2.801c-1.524,0.423-2.514,2.41-4.214,1.883
		c0.254-2.034,5.374-14.155,2.953-17.014c-0.032,0.415-0.112,1.245-0.144,1.668c-2.394,2.602-4.158,5.746-7.055,7.885
		c0.072-5.084,0.144-10.167-0.032-15.243c-3.096-0.024-5.762,1.772-8.779,2.163c-4.078,0.694-7.246,3.903-11.404,4.27
		c2.434-4.15,3.902-8.858,6.871-12.681c-2.905,1.301-5.578,3.368-8.771,3.839c-1.046,0.654-2.075,1.333-3.057,2.043
		c-0.048-0.894-0.072-1.78-0.072-2.65c2.849-2.466,3.304-6.408,5.084-9.537c0.12-1.117,0.535-2.107,1.245-2.969
		c-2.338,0.231-4.198,2.019-6.616,1.947c2.405-4.373,2.317-3.021,4.732-8.052c-2.274-1.085-4.533-2.171-6.736-3.376
		c-0.934,0.766-2.051,1.077-3.344,0.95c0.367-0.375,1.101-1.117,1.468-1.492c-1.093-0.75-2.211-1.452-3.296-2.179
		c-0.63,0.04-1.891,0.112-2.522,0.152c-0.2-0.255-0.599-0.774-0.798-1.029c-3.232,0.559-7.318-1.293-9.672,1.7
		c-1.516,0.375-3.009,0.814-4.533,1.101c-0.909,4.454-1.544,7.544-6.736,10.311c-2.602-0.048-5.203-0.032-7.789-0.048
		c-1.74,1.732-3.495,3.44-5.131,5.259c-3.001-0.439-6.696,1.109-9.154-1.053c-12.187,6.071-8.795,2.877-14.381,2.705
		c-12.98-7.198-14.566,4.179-31.794-31.06c-0.04-0.599-0.128-1.788-0.168-2.378c-0.829,0.822-0.89,0.864-0.71,13.774
		c-0.231,0.343-0.686,1.021-0.918,1.357c0.233,23.632,0.184,11.208-1.7,55.999c-1.971,3.32,0.04,7.43-1.205,10.957
		c-1.141,2.777,0.16,5.898-0.862,8.691c-0.862,2.035-0.391,4.294-0.511,6.44c-1.724,1.939-0.271,4.724-1.133,6.967
		c-1.03,2.139-0.12,4.613-1.077,6.76c-0.75,1.74-0.295,3.671-0.335,5.507c-0.224,0.247-0.678,0.734-0.902,0.974
		c-0.119,1.824-1.849,14.379-3.424,17.613c-0.064,1.006-0.12,2.011-0.16,3.041c-1.157,3.464-2.115,7.071-2.586,10.71
		c-0.192,0.191-0.567,0.567-0.75,0.758c0.04,2.019-0.894,3.879-1.085,5.882c-0.854,1.971-1.612,4.014-1.788,6.177
		c-1.048,2.507-4.947,15.947-5.132,16.751c-0.16,0.184-0.479,0.567-0.63,0.75c-3.148,11.887-15.485,43.335-15.905,49.583
		c-0.2,0.279-0.607,0.838-0.806,1.117c0,0.559,0.008,1.684,0.008,2.25c-1.349,1.484-0.718,3.535-0.79,5.347
		c-0.231,0.255-0.71,0.774-0.942,1.029c0.032,1.604,0.056,3.232,0.04,4.86c-1.748,2.187-0.184,5.163-1.285,7.582
		c-1.061,2.49,0.16,5.347-0.918,7.845c-0.902,2.266,0.16,4.844-0.902,7.087c-0.599,1.405-0.351,2.961-0.447,4.461
		c-0.16,0.343-0.487,1.038-0.646,1.389c-2.902,20.791-14.672,35.583-10.694,41.65c0.112,2.203,0.08,4.413,0.128,6.632
		c1.389,1.349,0.519,3.36,1.069,5.028c0.638,1.708,0.686,3.535,0.702,5.363c0.947,1.011,1.721,7.858,1.796,8.683
		c0.313,0.483,3.91,15.689,4.238,20.837c0.192,0.271,0.567,0.806,0.758,1.077c0.048,2.865,1.037,5.586,1.229,8.451
		c1.245,2.626-0.255,5.818,1.444,8.252c0.168,4.022-0.064,8.052,0.088,12.091c0.902,2.115,1.013,4.389,0.806,6.672
		c-2.194,2.472,0.494,12.907-1.716,19.712c0.511,4.134-1.093,8.012-0.942,12.13c-0.607,2.394-1.053,4.82-0.942,7.326
		c-1.317,1.788-0.622,4.094-0.718,6.153c-0.232,0.279-0.694,0.838-0.934,1.117c-0.008,1.556,0.231,3.216-0.391,4.717
		c-0.974,2.115,0.247,4.693-1.221,6.64c-0.104,1.477,0.12,3.049-0.439,4.477c-0.945,1.843,0.094,4.168-1.289,5.842
		c-4.338,5.252-3.461,25.867-3.853,32.216c-0.973,15.761-1.938,31.522-2.907,47.283c-2.101,29.41-4.433,59.021-5.44,88.488
		c-0.35,10.26-4.985,36.674,0.735,45.181c0.056,1.604,0.072,3.216,0.072,4.86c-0.195-0.089-22.504-16.302-24.277-17.964
		c-0.471,0.367-1.405,1.109-1.867,1.484c0.136,5.522-0.072,11.053,0.128,16.592c-0.255,0.223-0.766,0.678-1.029,0.902
		c0.048,1.644,0.064,3.296,0.056,4.98c-2.019,2.322,0.367,5.898-1.692,8.172c-0.65,10.753,5.996,20.978,7.813,35.45
		c0.367,6.616-0.878,13.423,0.83,19.882c2.731,30.859,5.463,61.765,5.904,92.759c0.234,16.387-0.147,32.79-1.463,49.13
		c-0.812,10.081,0.567,30.766-5.264,39.402c-0.271,4.302-1.636,8.491-1.836,12.833c-0.215,0.271-0.646,0.822-0.862,1.093
		c0,1.285,0.024,2.618,0.024,3.95c-1.253,1.54-0.814,3.575-0.814,5.427c-0.231,0.231-0.71,0.71-0.95,0.95
		c-0.008,2.323,0.479,4.812-0.559,7.023c-1.061,3.368,0.958,7.414-1.101,10.478c0.263,4.932-0.782,10.064,0.838,14.828
		c0.104,2.458-0.04,4.924,0.064,7.406c1.652,1.971,0.271,4.692,1.101,6.951c0.734,1.652,0.583,3.448,0.527,5.243
		c0.231,0.263,0.694,0.79,0.934,1.046c-0.165,2.652,1.509,12.575,2.498,14.995c-0.263,3.176,1.405,6.089,0.95,9.281
		c0.239,0.239,0.726,0.71,0.966,0.95c-0.056,1.644-0.08,3.304-0.056,4.988c1.7,1.987,0.391,4.693,1.085,6.991
		c1.141,2.753,0.487,5.794,0.678,8.699c1.021,1.282,1.101,0.158,0.83,23.598c-0.678,1.9-1.101,3.831-0.902,5.898
		c-1.66,2.179-0.144,5.099-1.237,7.494c-1.006,2.267,0.12,4.9-0.974,7.167c-0.678,1.429-0.295,3.033-0.335,4.589
		c-0.2,0.263-0.615,0.782-0.822,1.046c-0.176,3.073-1.452,5.953-2.873,8.643c-1.835,2.107-1.029,5.036-2.41,7.286
		c-0.08,1.437,0.311,3.025-0.375,4.413c-0.91,1.931-0.383,4.134-0.591,6.225c-0.439,0.758-0.814,1.564-1.133,2.41
		c-2.959,0.071-9.932,2.496-11.652,3.447c-0.75-0.008-2.242-0.024-2.993-0.04c0,0.239-0.008,0.71-0.008,0.942
		c-1.301,0.064-2.873-0.487-3.823,0.694c-2.777,0.439-5.467,1.397-8.324,0.918c0.016,0.247,0.04,0.75,0.056,0.998
		c-2.043-0.104-4.094-0.136-6.129-0.048c-1.173,0.798-2.618,0.838-3.958,1.125c-0.487-0.854-0.926-1.74-1.277-2.609
		c-3.423-3.091-2.499-2.984-5.562-6.544c-2.61,1.325-5.73,1.325-8.188,2.985c-0.694-0.215-1.373-0.407-2.051-0.591
		c0.096,0.303,0.279,0.918,0.375,1.221c-2.905,0.008-5.331,1.923-8.228,1.947c0.016,0.263,0.04,0.782,0.048,1.046
		c-0.407-0.144-1.221-0.431-1.636-0.583l-0.088,1.413c-0.391-0.144-1.181-0.423-1.58-0.567c-0.016,0.327-0.04,0.982-0.056,1.309
		c-0.583-0.08-1.756-0.255-2.338-0.343c-0.064,0.216-0.192,0.655-0.255,0.878c-1.492,0.383-2.849,1.149-4.054,2.107
		c-0.431-0.08-0.854-0.128-1.261-0.152c-1.979,1.062-3.942,2.187-6.065,2.937c-0.048,0.184-0.136,0.551-0.184,0.726
		c-0.599-0.072-1.804-0.231-2.41-0.303c-0.024,0.311-0.072,0.926-0.104,1.237c-0.383-0.12-1.157-0.359-1.548-0.479l-0.12,1.269
		c-0.399-0.096-1.205-0.279-1.604-0.367l-0.048,1.125c-1.021-0.072-2.035-0.12-3.033-0.144l0.319,1.221
		c-0.495-0.136-1.476-0.415-1.971-0.559l0.327,1.412c-0.495-0.151-1.484-0.463-1.971-0.615l0.303,1.477
		c-0.662-0.144-1.979-0.423-2.642-0.567c0.008,0.279,0.016,0.83,0.016,1.101c-2.777-0.008-5.339,2.514-8.06,1.397
		c0.088,0.303,0.263,0.926,0.351,1.237c-2.123,0.024-4.102,0.798-5.938,1.78c-1.069-0.024-2.123-0.032-3.168-0.008l0.255,0.982
		c-1.452-0.104-2.873-0.135-4.302-0.191l-0.072,1.037c-1.58-0.096-3.144-0.12-4.708-0.152l0.479,0.982
		c-2.179-0.104-4.349-0.128-6.52-0.08c-2.666,1.899-6.416,0.319-9.505,0.91c-1.328,1.421-2.885,0.489-16.153,0.854
		c-0.016-0.247-0.048-0.734-0.064-0.974c-2.977-0.359-6.576,1.037-9.154-0.742c-1.836-0.151-3.839,0.343-5.435-0.79
		c-1.413-0.231-3.128,0.303-4.118-0.982c-0.958,0.008-1.915,0.056-2.857,0.128c-0.032-0.279-0.096-0.838-0.128-1.125
		c-0.606,0.088-1.828,0.255-2.442,0.343c-0.008-0.224-0.04-0.67-0.056-0.894c-3.12-1.045-6.855-1.756-8.986-4.453
		c-1.684-0.136-2.634-1.644-3.751-2.681c-1.931-2.107-4.565-3.655-5.626-6.416c-1.309-3.456-1.612-7.645,1.349-10.359
		c2.42-6.296,48.983-24.151,59.87-33.375c0.303-0.104,0.91-0.303,1.205-0.407c0.726-0.766,1.46-1.508,2.203-2.227
		c0.479,0.048,1.444,0.136,1.923,0.184l-0.495-1.221l1.325,0.551l-0.519-1.173l1.213,0.223l-0.184-1.157l1.077,0.287l-0.199-1.373
		c0.335,0.144,1.013,0.431,1.357,0.567c1.355-2.192,6.811-7.416,8.3-8.324l-0.263-0.622l0.774,0.136
		c6.062-8.276,4.603-8.751,6.815-9.082c-0.176-0.407-0.519-1.205-0.694-1.612l1.149,0.439c0-1.03,0.271-1.947,0.822-2.753
		c-0.144-1.101,0.231-1.899,1.109-2.394c-0.08-0.327-0.247-0.974-0.327-1.301h0.934c0.12-1.094,0.535-2.027,1.245-2.801
		c-1.149,0.247-2.306,0.431-3.456,0.63c-0.255,0.287-0.766,0.87-1.03,1.165c-0.63-0.048-1.899-0.144-2.538-0.183
		c-0.335,0.223-1.013,0.67-1.349,0.902c-1.46-0.04-3.017-0.207-4.182,0.846c-1.277-0.024-2.546-0.04-3.799-0.04
		c0.024,0.247,0.064,0.726,0.088,0.966c-2.426-0.104-4.852-0.104-7.262-0.056l0.295,0.91c-8.595-0.2-17.198-0.128-25.801-0.032
		l0.032-0.99c-1.979,0.056-3.966,0.088-5.938,0.216l0.144-0.926c-1.349-0.024-2.697-0.064-4.022,0
		c-0.255-0.239-0.766-0.718-1.014-0.958c-0.622,0.008-1.859,0.032-2.482,0.048c-0.814-0.71-1.78-0.99-2.881-0.846
		c-0.223-0.295-0.678-0.894-0.902-1.189c-0.567,0.064-1.708,0.184-2.282,0.24l0.351-0.942c-2.416,0.28-6.185-1.654-7.111-3.192
		c-1.125-0.144-2.059-0.583-2.346-1.748c-0.407-0.056-1.229-0.168-1.644-0.223c-6.678-5.051-4.572-11.245-4.86-14.82
		c1.253-2.171,2.179-4.589,4.19-6.201c2.493-2.858,13.139-4.976,17.07-4.996c2.346-1.931,5.754,0.223,8.18-1.612
		c2.915,0.288,17.014-3.311,19.88-5.195c0.351-0.024,1.061-0.072,1.413-0.096c26.202-15.234,18.237-13.641,22.481-21.26
		c8.484-15.864,16.023-26.228,16.496-33.797c0.184-0.319,0.535-0.95,0.71-1.269c0.024-1.229,0.08-2.426,0.894-3.384
		c-0.471-4.325,1.373-8.348,0.966-12.657c-0.247-0.271-0.726-0.814-0.966-1.093c0.048-2.275,0.048-4.549,0.112-6.799
		c-0.239-0.247-0.71-0.75-0.942-1.006c0.128-7.055-4.186-18.496-4.533-21.523c-0.694-1.548-0.678-3.296-1.508-4.764
		c-0.024-0.543-0.072-1.636-0.096-2.179c-1.469-2.435-1.19-5.48-2.398-8.01c-7.367-15.432-5.317-42.662-7.262-59.365
		c-3.563-26.723-11.476-58.106-10.435-84.878c-1.013-1.269-0.75-2.905-0.734-4.365c-0.223-0.247-0.662-0.75-0.886-0.998
		c-0.12-1.556,0.383-3.328-0.838-4.557c0.016-0.551,0.048-1.668,0.072-2.227c-0.214-0.253-0.64-0.759-0.849-1.016
		c-6.46-7.94-6.471-30.752-8.212-40.503c-3.074-17.212-5.851-34.477-8.331-51.784c-8.809-61.491-10.743-123.065-13.686-185.119
		c0.653,13.771-6.555,31.508-9.003,45.226c-2.869,16.079-5.398,32.218-7.586,48.403c-4.505,33.323-7.566,66.842-9.175,100.429
		c-1.563,32.628-1.755,65.322-0.57,97.966c1.015,27.947,6.394,54.74,8.635,81.821c0.255,0.255,0.766,0.766,1.021,1.021
		c-0.742,4.198,1.189,8.068,0.854,12.266c1.038,2.083,0.75,4.397,0.862,6.664c0.854,2.067,0.79,4.286,0.958,6.496
		c0.734,1.764,0.766,3.663,0.79,5.578c1.476,1.899,0.08,4.573,1.612,6.496c0.008,1.301,0,2.618-0.008,3.966
		c0.2,0.263,0.591,0.79,0.79,1.053c2.711,17.746,11.119,38.837,15.123,44.635c-0.886,0.303-1.78,0.591-2.626,0.99
		c-7.135,0.024-14.277,0.088-21.412-0.024c-3.472-1.213-7.167-1.891-10.55-3.44c-1.708-1.046-3.471-1.987-5.331-2.705
		c-4.16-3.958-7.136-4.038-14.133-15.921c-2.402,2.586-5.546,4.246-8.404,6.257c-1.885,0.435-1.256,0.079-4.421,1.939
		c-2.514,0.2-4.868,1.325-7.438,0.998c-2.378,1.524-5.379,0.59-8.028,0.766c-1.468-1.397-3.599-0.678-5.387-0.782
		c-0.215-0.223-0.662-0.67-0.886-0.894c-11.501-0.323-27.001-14.928-26.727-22.944c-1.716,1.101-3.847,0.982-5.57,1.995
		c-1.037,0.016-2.067,0.048-3.088,0.104c-2.993,1.692-6.648,0.455-9.92,0.822c-3.184-0.335-6.728,0.798-9.648-0.766
		c-4.82,0.024-8.954-2.849-13.136-4.852c-2.53-2.641-5.842-4.82-7.438-8.164c-0.311-0.287-0.926-0.862-1.237-1.149
		c-1.069-2.41-1.676-4.98-2.658-7.406c-0.08-0.798-0.152-1.58-0.215-2.33c-0.263-0.559-0.774-1.692-1.037-2.25
		c-0.638-0.032-1.915-0.096-2.562-0.136c-0.279,0.255-0.838,0.758-1.117,1.014c-7.893-0.511-16.097,1.085-23.678-1.628
		c-6.882-0.45-15.674-7.875-16.472-8.316c-2.147-3.288-5.682-6.113-5.682-10.383c-1.46-2.801-0.479-6.073-0.766-9.082
		c-0.287-2.027,0.511-3.855,1.317-5.634c-2.73,1.274-10.837,6.41-20.622,5.379c-2.131-1.237-4.764-0.702-6.959-1.852
		c-3.815-0.726-6.552-3.559-9.856-5.315c-10.338-10.442-15.997-15.972-15.067-31.132c-9.923,4.185-11.029,1.754-15.865,3.783
		c-0.335-0.295-0.998-0.894-1.325-1.189c-2.011-0.104-4.302,0.606-6.041-0.71c-0.782-0.072-1.564-0.112-2.33-0.12
		c-5.579-3.119-13.212-5.161-18.228-18.754c-1.109-1.78-0.535-4.038-1.492-5.89c-0.319-5.243-0.383-10.854,2.027-15.586
		c-1.987,1.245-4.294,1.82-6.584,2.195c-1.373,0.734-2.953,0.654-4.453,0.79c-3.731,2.171-14.54-0.334-18.363-2.346
		c-9.544-6.684-8.587-11.312-10.973-15.913c-0.136-4.349,0.072-8.699-0.072-13.04c-0.766-0.742-1.556,0.503-2.282,0.718
		c-3.025-0.008-6.041,0.032-9.066-0.048c-2.075-0.838-4.397-0.934-6.289-2.219c-7.071-2.891-10.735-11.355-11.931-13.248
		c-0.008-0.543-0.016-1.628-0.016-2.179c-0.823-0.774-1.03-1.04-0.766-11.213c0.934-1.484,0.678-3.384,1.684-4.812
		c0-0.343,0.008-1.046,0.008-1.389c0.702-0.567,1.021-1.245,0.958-2.051c-15.551-1.814-12.879-3.101-17.03-3.775
		c-1.173-0.63-2.298-1.341-3.256-2.242c-0.287-0.096-0.854-0.279-1.141-0.367c-1.564-1.796-3.711-2.873-5.387-4.509
		c-1.157-2.163-2.506-4.214-3.559-6.416c-0.208-0.95-0.511-1.859-0.966-2.681c-0.678-4.892,0.575-9.84,3.495-13.814
		c0.423-0.599,1.756-2.41-0.04-2.027c-2.514-0.255-5.275,0.622-7.55-0.742c-6.912,0.273-18.418-12.696-19.217-13.439
		c-1.74-3.735-4.525-7.071-4.74-11.372c-1.429-2.642-0.519-5.77-0.702-8.611c2.687-5.51,0.014-3.202,7.214-9.936
		c-2.155-1.939-5.147-0.846-7.725-1.205c-15.63-3.595-16.738-7.587-20.095-10.534c-0.607-1.349-1.285-2.673-2.003-3.934
		c-0.032-0.367-0.088-1.085-0.112-1.445c-1.716-3.719-0.359-8.156-0.742-12.146c0.982-1.261,0.814-2.889,0.934-4.349
		c1.309-3.4,2.051-7.063,4.389-9.96c-1.46-0.479-2.857-1.133-4.222-1.819c-0.894-0.144-1.716-0.447-2.482-0.902
		c-0.383-0.04-1.149-0.128-1.532-0.168c-2.434-1.309-4.924-2.506-7.438-3.647c-0.287-0.295-0.87-0.886-1.165-1.181
		c-9.719-3.874-8.512-21.588-8.459-26.703c1.444-1.907,0.16-4.533,1.556-6.432c-0.12-3.631,1.652-6.871,2.889-10.159
		c-0.798-0.432-11.822-4.698-18.291-16.607c-0.315-3.001-2.314-3.84-1.923-6.863c-0.223-0.239-0.67-0.718-0.894-0.958
		c0.447-4.102-0.702-8.435,0.662-12.37c2.193-6.866,4.108-6.672,8.619-11.676c1.309-1.572,3.32-2.171,5.123-2.961
		c-3.16-0.822-5.179-3.575-7.989-4.98c-0.926-0.862-1.804-1.764-2.642-2.673c-0.431-1.445-1.588-2.41-2.65-3.36
		c-0.096-0.303-0.295-0.894-0.399-1.197c-3.162-3.422-7.403-13.231-3.48-21.851c2.294-4.273,6.474-5.43,10.159-7.574
		c-1.373-1.277-3.017-2.171-4.525-3.24c-2.123-2.825-3.894-5.906-5.283-9.146c-4.853-19.593,0.849-22.763,7.238-28.834
		c0.966-0.519,1.844-1.173,2.705-1.82c-0.646-0.024-1.947-0.056-2.602-0.072c-11.681-5.978-8.87-22.548-9.066-28.211
		c3.607-10.539,1.472-7.61,6.488-12.952c10.383,3.99,20.502,8.715,31.212,11.835c6.368,2.163,13.136,3.36,19.369,5.778
		c0.591-0.016,1.756-0.056,2.338-0.08c0.231,0.231,0.702,0.694,0.942,0.926c2.713-0.096,5.395,0.678,7.893,1.652
		c1.564,0.064,3.16,0.12,4.581,0.886c1.397,0.168,2.993-0.152,4.158,0.87c3.192,0.591,6.632,0.559,9.625,1.764
		c3.472-0.192,6.704,1.381,10.191,1.005c1.756,1.453,4.158,0.615,6.225,0.742c0.215,0.255,0.646,0.758,0.862,1.006
		c2.634,0.152,5.61-0.83,7.957,0.75c3.152,0.487,6.839-0.982,9.625,0.902c4.988,0.24,10.119-0.67,14.948,0.862
		c10.877,0.04,21.763,0.048,32.648,0c4.405-1.82,9.273-0.208,13.83-1.093c2.889-1.405,6.217,0.016,9.17-1.062
		c2.737-1.173,6.025,0.527,8.547-1.269c4.302,0.487,8.284-1.429,12.585-0.95c2.426-1.844,5.842,0.279,8.244-1.596
		c2.091-0.088,4.254,0.16,6.289-0.487c2.498-0.95,5.443,0.343,7.725-1.261c1.971-0.287,4.262,0.471,5.969-0.862
		c3.631,0.415,6.927-1.293,10.55-1.045c2.442-1.397,5.507-0.016,7.797-1.62c3.791,0.463,7.222-1.452,11.021-0.966
		c1.78-1.668,4.517-0.064,6.376-1.644c1.628-0.04,3.256-0.024,4.9,0.032c0.239-0.231,0.734-0.694,0.974-0.926
		c1.564-0.016,3.176,0.12,4.693-0.399c1.939-0.702,4.142-0.128,5.985-1.181c4.892-0.2,9.601-1.859,14.493-2.011
		c1.405-1.317,3.416-0.463,5.084-0.99c1.436-0.559,2.961-0.71,4.493-0.774c1.548-1.349,3.711-0.343,5.467-1.117
		c1.285-0.535,2.673-0.527,4.038-0.622c3.065-1.508,6.871-0.862,9.888-2.434c1.022-0.016,2.051-0.008,3.088,0.024
		c0.295-0.223,0.878-0.662,1.173-0.878c2.629,0,42.18-8.048,44.683-15.195c-0.231-0.327-0.694-0.982-0.926-1.309
		c0.008-4.405,0.16-8.811-0.032-13.208c-0.184-0.343-0.543-1.021-0.726-1.365c-0.519-4.828,0.838-9.896-0.862-14.525
		c-0.07-0.798-0.419-27.662-2.035-32.888c-26.071-11.611-26.887-10.612-30.749-36.942c-2.532-36.531-2.72-58.44,32.329-70.66
		c4.53-1.138,1.089-4.416,8.691-31.97c19.534-62.851,32.254-76.354,61.043-105.606c47.296-45.414,46.62-49.526,50.453-80.492
		c2.476-16.685-0.993-39.725-0.614-45.888c-1.429,1.796-2.833,3.607-4.214,5.435c-0.733,25.322-13.019,43.373-28.802,50.756
		c-2.618,1.037-2.993,4.094-3.839,6.416c-6.206,19.76-20.878,26.668-26.04,29.696c0.184,3.639,2.115,7.246,5.443,8.898
		c4.98,1.397,8.898-2.634,12.505-5.355c-1.835,15.488-16.584,20.677-27.341,10.447c-1.037,14.679,12.138,20.107,14.604,21.938
		c-10.392,1.882-23.673-9.666-24.165-32.497c-12.926,18.417-36.469,20.831-44.827,12.553c7.262,0.966,14.956,1.732,22.042-0.615
		c-54.849-4.656-34.878-49.114-16.424-38.769c1.117,2.897,1.037,6.009-0.423,8.771c-0.966-1.516-1.883-3.057-2.769-4.605
		c-10.042,3.371-5.473,19.332,10.151,19.528c19.672-2.108,18.834-18.005,22.178-29.735c-3.16,2.227-6.584,4.206-10.455,4.828
		c0.654,1.492,1.293,3.001,1.883,4.533c-1.357-1.181-2.586-2.498-3.711-3.895c-6.44,0.064-13.048-0.176-19.097-2.618
		c-16.7-6.465-26.114-30.832-13.83-41.762c4.892-4.812,13.758-4.716,18.228,0.622c1.843,2.099,1.436,5.052,1.548,7.637
		c-1.891,1.891-3.831,3.735-5.882,5.451c0.255-1.237,0.527-2.466,0.806-3.687c-1.532-1.077-2.849-3.879-4.996-2.961
		c-10.297,6.507-0.483,24.667,15.602,23.471c-0.072-0.742-0.215-2.235-0.287-2.977c0.934,0.998,1.883,2.027,2.825,3.041
		c-5.097-22.748,6.299-43.326,6.823-48.673c-7.007,8.731-8.34,20.358-9.473,31.124c-0.83,5.076,0.271,10.151,0.495,15.227
		c-5.555-9.095-8.049-39.467,0.838-60.756c0.577-1.349-4.813-32.329,7.733-47.476c6.676-9.293-1.31-14.524,6.799-42.696
		c1.133-3.863,3.096-7.414,4.397-11.213c-3.927,3.621-12.876,17.892-15.889,31.826c-0.774,4.884,0.072,9.84-0.399,14.756
		c-10.199-27.354,15.135-63.454,38.753-75.759c-31.804-10.582-9.42-48.902,2.634-35.497c1.804,1.429,1.301,3.918,1.524,5.946
		c-1.03,0.83-2.035,1.692-3.033,2.554c-0.495-1.851-1.093-3.671-1.939-5.395c-2.338,1.508-5.315,3.112-5.618,6.209
		c-0.082,11.705,12.933,19.111,32.561,3.918c3.065-2.266,3.432-6.321,4.884-9.577c1.58-4.365,4.701-7.869,7.286-11.644
		c-15.099-4.804-26.679-18.658-29.169-34.228c4.218,5.815,13.017,21.968,25.099,25.426c-3.192-2.809-7.079-4.86-9.688-8.292
		c-15.726-20.125,2.286-50.623,24.045-34.364c0.152,3.918-0.862,7.821-3.647,10.71c0.192-2.123,0.559-4.214,0.942-6.297
		c-1.053-1.006-2.099-2.011-3.136-3.017c-25.88-0.071-20.473,32.215,1.7,28.554c5.953-0.543,11.292-3.304,16.775-5.427
		c6.208-16.729,7.524-23.431,20.063-35.601c6.596-6.369,20.68-11.586,24.325-15.498c5.505-5.893,24.568-30.126,43.175-43.837
		C636.449,86.095,647.199,79.911,658.619,75.338 M569.189,154.153c-4.599,4.284-12.143,10.312-14.437,24.532
		c12.314-15.075,1.845-1.777,17.046-25.713C570.793,153.044,569.844,153.363,569.189,154.153 M546.038,184.743
		c1.756-1.301,4.286-2.458,4.445-4.948c0.455-4.573,2.649-8.707,3.839-13.096C550.642,172.189,547.714,178.342,546.038,184.743
		 M466.432,301.163c-7.853,8.755-12.498,19.967-14.333,31.507c23.926-19.618,35.736-31.995,36.742-45.96
		C480.629,290.253,472.976,295.066,466.432,301.163 M705.385,382.796C705.544,385.445,707.747,381.527,705.385,382.796
		 M705.169,383.953c-6.776,14.504-22.794,34.532-23.479,35.338c1.676-0.048,3.368-0.056,5.06,0.04
		c5.111-7.152,15.817-22.976,17.972-31.451C705.536,386.666,705.688,385.285,705.169,383.953 M448.484,414.598
		c-5.507,11.181-7.893,23.854-7.47,36.272C451.26,446.734,457.528,432.484,448.484,414.598 M494.723,467.549
		c-5.259,5.794-9.824,12.889-10.303,20.901c13.032-7.924,19.661-26.678,18.906-28.722
		C500.277,462.114,496.933,464.293,494.723,467.549 M429.809,785.756C428.548,788.11,432.467,785.884,429.809,785.756
		 M116.35,1115.184C116.526,1117.834,118.712,1113.884,116.35,1115.184z"/>
	<path opacity="0.43" fill="#523C4D" enable-background="new    " d="M705.385,382.796
		C707.747,381.527,705.544,385.445,705.385,382.796z"/>
	<path fill="#C4C4C4" d="M774.416,73.454c-1.875,0.846-4.07,2.697-6.025,1.006c-6.297-4.254-13.104-7.957-20.542-9.76
		c-10.502-3.144-21.571-2.921-32.417-2.817c-19.528,1.197-38.698,6.185-56.813,13.455c-11.42,4.573-22.17,10.758-31.962,18.196
		c-9.281,6.839-17.278,15.171-25.346,23.351c-1.524,1.676-2.801,3.551-4.381,5.171c-4.772,4.844-8.81,10.351-13.447,15.315
		c-3.376,3.623-8.34,4.868-12.426,7.446c-4.054,2.554-8.427,4.701-11.899,8.052c-3.791,3.679-7.757,7.35-10.183,12.138
		c-4.445,7.302-6.927,15.506-9.88,23.463c-5.483,2.123-10.822,4.884-16.775,5.427c-5.898,0.974-12.458-0.95-16.224-5.73
		c-2.921-3.575-3.041-8.579-2.139-12.889c1.341-3.878,4.381-7.079,7.996-8.954c2.658-1.413,5.77-0.99,8.667-0.982
		c1.037,1.006,2.083,2.011,3.136,3.017c-0.383,2.083-0.75,4.174-0.942,6.297c2.785-2.889,3.799-6.791,3.647-10.71
		c-2.873-2.147-5.945-4.509-9.672-4.732c-8.994-0.766-17.318,6.353-19.648,14.748c-1.58,8.34-0.032,17.557,5.275,24.349
		c2.61,3.432,6.496,5.483,9.688,8.292c-4.461-1.277-7.981-4.421-11.468-7.318c-5.555-5.219-9.202-12.003-13.631-18.108
		c2.49,15.57,14.07,29.424,29.169,34.229c-2.586,3.775-5.706,7.278-7.286,11.644c-1.452,3.256-1.82,7.31-4.884,9.577
		c-3.815,2.953-7.693,6.177-12.466,7.414c-4.333,1.149-9.194,2.203-13.359-0.072c-4.461-1.732-6.768-6.704-6.736-11.26
		c0.303-3.096,3.28-4.701,5.618-6.209c0.846,1.724,1.444,3.543,1.939,5.395c0.998-0.862,2.003-1.724,3.033-2.554
		c-0.224-2.027,0.279-4.517-1.524-5.945c-2.562-2.849-6.967-3.16-10.255-1.492c-3.479,1.516-5.283,5.083-6.911,8.292
		c-1.923,3.703-1.532,8.004-1.484,12.043c-0.088,3.703,2.25,6.831,4.437,9.601c2.945,3.583,7.262,5.618,11.58,7.055
		c-6.831,3.559-12.777,8.563-18.044,14.133c-7.478,6.919-13.184,15.57-17.669,24.668c-3.065,6.009-4.812,12.745-4.685,19.512
		c0.08,5.826-0.439,11.859,1.644,17.445c0.471-4.916-0.375-9.872,0.399-14.756c1.572-7.27,4.325-14.269,8.172-20.638
		c2.418-3.831,4.341-8.076,7.717-11.189c-1.301,3.799-3.264,7.35-4.397,11.213c-1.836,6.376-3.001,12.928-3.783,19.512
		c-0.511,5.842,0.072,11.715-0.176,17.565c0.048,2.243-1.62,3.918-2.841,5.618c-4.158,5.02-5.523,11.564-7.182,17.701
		c-1.852,6.432-1.245,13.184-1.237,19.792c-0.104,3.336,2.083,6.72,0.686,9.984c-2.402,5.754-3.855,11.883-4.804,18.036
		c-0.335,6.089-1.628,12.146-0.998,18.267c0.766,6.951,1.237,13.974,3.096,20.749c0.359,1.349,1.141,2.514,1.867,3.703
		c-0.224-5.076-1.325-10.151-0.495-15.227c1.133-10.766,2.466-22.393,9.473-31.124c-0.335,3.416-2.035,6.464-3.073,9.688
		c-4.302,12.418-6.664,25.985-3.751,38.985c-0.942-1.013-1.891-2.043-2.825-3.041c0.072,0.742,0.216,2.235,0.287,2.977
		c-6.44,0.479-12.952-2.282-16.783-7.534c-3.966-4.381-4.174-12.553,1.181-15.937c2.147-0.918,3.464,1.883,4.996,2.961
		c-0.279,1.221-0.551,2.45-0.806,3.687c2.051-1.716,3.99-3.559,5.882-5.451c-0.112-2.586,0.295-5.539-1.548-7.637
		c-4.469-5.339-13.335-5.435-18.228-0.622c-4.924,4.381-6.488,11.436-5.219,17.741c2.019,10.375,9.01,20.135,19.049,24.021
		c6.049,2.442,12.657,2.681,19.097,2.618c1.125,1.396,2.354,2.713,3.711,3.894c-0.591-1.532-1.229-3.041-1.883-4.533
		c3.871-0.623,7.294-2.602,10.455-4.828c-2.306,8.092-2.53,17.477-8.635,23.91c-3.28,4.014-8.627,5.299-13.543,5.826
		c-5.73-0.072-11.851-2.809-14.596-8.052c-2.171-4.174-0.096-9.952,4.445-11.476c0.886,1.548,1.804,3.089,2.769,4.605
		c1.46-2.761,1.54-5.874,0.423-8.771c-4.086-2.29-9.609-2.275-13.216,0.926c-7.286,6.376-7.885,18.69-1.325,25.801
		c7.829,8.595,19.872,11.101,30.964,12.043c-7.087,2.346-14.78,1.58-22.042,0.615c4.964,4.916,12.498,4.597,18.954,4.254
		c8.555-0.974,15.522-6.448,21.859-11.835c1.572-1.46,2.793-3.232,4.014-4.972c0.184,8.515,2.266,17.19,7.167,24.253
		c4.142,4.924,10.167,9.481,16.998,8.244c-3.009-2.234-6.616-3.695-9.178-6.48c-3.567-4.31-5.826-9.808-5.427-15.458
		c2.769,2.634,6.001,5.195,9.992,5.419c6.392,0.271,13.064-3.216,15.865-9.09c1.085-2.091,1.213-4.485,1.484-6.775
		c-3.607,2.721-7.526,6.751-12.505,5.355c-3.328-1.652-5.259-5.259-5.443-8.898c2.953-1.732,5.993-3.336,8.747-5.379
		c8.204-5.953,14.261-14.66,17.294-24.317c0.846-2.322,1.221-5.379,3.839-6.416c5.203-2.434,10.287-5.507,13.719-10.231
		c6.951-7.997,11.987-17.733,13.838-28.203c0.527-4.094,1.125-8.188,1.245-12.322c1.381-1.828,2.785-3.639,4.214-5.435
		c-0.391,6.368,1.349,12.617,0.942,18.986c-0.279,4.238,1.452,8.403,0.575,12.633c-0.974,4.708-0.2,9.537-0.902,14.269
		c-1.301,10.51-2.769,21.109-6.368,31.124c-1.875,3.815-4.78,6.991-7.151,10.495c-4.142,5.123-8.156,10.391-12.968,14.916
		c-3.495,3.456-6.113,7.725-10.031,10.766c-5.132,3.863-9.321,8.763-13.934,13.192c-5.945,6.041-12.059,11.915-17.932,18.02
		c-16.033,18.938-27.349,41.395-35.888,64.578c-3.096,7.438-4.836,15.331-7.222,23.008c-2.594,9.401-4.669,18.97-5.914,28.65
		c-0.144,1.588-1.221,2.929-2.777,3.32c-6.775,2.362-13.862,4.772-19.161,9.832c-4.94,5.379-9.002,11.596-11.763,18.371
		c-1.724,5.922-1.452,12.162-2.306,18.228c-0.934,8.092,0.343,16.168,0.902,24.229c0.966,6.584,1.899,13.264,4.134,19.568
		c1.963,5.546,7.629,8.236,12.426,10.917c4.453,2.713,9.441,4.342,14.189,6.456c2.019,6.528,0.383,13.399,1.668,20.023L427,789.539
		c0.016-0.375,0.056-1.133,0.08-1.516c-3.184,0.375-6.065-1.309-9.249-0.934c-1.907-0.678-3.894-0.942-5.906-0.878
		c-1.197-1.101-2.841-0.71-4.286-0.814c-1.548-1.476-3.982-0.135-5.483-1.636c-1.077-0.04-2.139-0.048-3.2-0.056
		c-1.516-1.636-4.086-0.088-5.539-1.74c-0.559,0-1.676,0-2.234,0c-2.713-1.58-6.329-0.878-9.026-2.61
		c-0.575,0.016-1.716,0.04-2.29,0.048c-0.311-0.248-0.934-0.742-1.245-0.998c-0.591,0.032-1.764,0.08-2.354,0.104
		c-0.295-0.248-0.894-0.742-1.189-0.998c-0.567,0.008-1.692,0.024-2.25,0.032c-2.131-1.133-4.645-1.205-6.943-1.835
		c-7.574-2.41-15.203-4.565-22.752-7.071c-2.865-1.029-5.842-1.748-8.659-2.913c-1.923-0.998-4.006-1.66-6.105-2.131
		c-0.902-0.535-1.828-1.069-2.729-1.564c-3.057-0.654-5.898-2.235-8.818-3.384c-1.133-0.303-2.211-0.726-3.28-1.141
		c-2.498-1.54-5.443-2.075-7.941-3.607c-3.679-1.923-7.398-3.767-11.109-5.602c-1.804-0.838-3.591-1.708-5.363-2.594
		c-1.101-0.726-2.147-1.548-3.328-2.131c-3.527-2.115-7.135-4.126-10.502-6.496c-0.902-0.527-1.724-1.189-2.514-1.828
		c-0.271-0.096-0.822-0.295-1.093-0.391c-1.604-1.389-3.352-2.618-5.211-3.615c-2.769-1.923-5.1-4.493-8.028-6.113
		c-1.852-2.338-4.693-3.488-6.624-5.714c-2.019-2.33-4.988-3.503-6.871-5.977c-2.003-2.578-5.044-3.918-7.198-6.313
		c-6.456-6.576-13.096-12.976-19.488-19.6c-2.338-3.99-6.528-6.408-8.834-10.423c-2.49-2.107-3.855-5.131-6.313-7.262
		c-2.418-3.001-4.693-6.121-7.182-9.058c-0.734-1.756-2.426-2.833-3.184-4.557c-2.211-2.338-3.655-5.227-5.562-7.789
		c-0.79-1.245-1.668-2.418-2.434-3.663c-0.583-0.798-1.141-1.58-1.612-2.418c-2.434-3.248-4.238-6.879-6.384-10.295
		c-1.652-2.562-3.232-5.164-4.461-7.957c-1.125-3.408-4.038-5.969-4.693-9.521c-0.591-1.149-1.173-2.298-1.716-3.456
		c-0.503-0.902-0.974-1.812-1.452-2.697c-0.575-1.197-1.149-2.386-1.732-3.559c-0.479-2.698-2.33-4.892-2.977-7.542
		c-2.003-3.998-2.61-8.547-4.868-12.426c-0.91-2.937-1.357-6.009-2.642-8.802c-0.048-0.351-0.152-1.053-0.207-1.397
		c-1.205-3.4-1.963-7.007-2.665-10.542c-0.87-1.851-0.942-3.934-1.748-5.81c1.277,0.016,2.562,0.032,3.847,0.048
		c2.546-1.78,5.938-0.431,8.834-0.918c2.322-1.907,5.706,0.231,8.116-1.588c1.78-0.136,3.767,0.343,5.251-0.934
		c3.535,0.104,7.015-0.623,10.407-1.524c4.381-0.622,8.938-1.221,13.072-2.873c1.013-0.024,2.043-0.04,3.072-0.048
		c2.482-1.524,5.682-1.061,8.18-2.498c0.535-0.032,1.604-0.088,2.147-0.12c3.966-1.588,8.188-2.578,12.33-3.559
		c7.438-2.642,14.852-5.283,22.114-8.364c1.46-0.295,2.833-0.894,4.086-1.684c2.658-1.109,5.395-2.035,7.869-3.543
		c3.543-1.812,7.23-3.352,10.526-5.602c5.139-2.594,9.856-5.922,14.708-9.01c1.277-0.734,2.33-1.764,3.4-2.753
		c3.719-1.812,6.281-5.363,9.832-7.35c6.145-6.073,12.29-12.154,18.323-18.331c1.141-3.032,4.629-4.333,5.754-7.382
		c4.118-3.998,6.783-9.209,10.638-13.431c1.636-2.761,3.519-5.371,5.323-8.02c1.74-3.065,4.03-5.778,5.762-8.843
		c1.844-3.2,3.823-6.313,5.594-9.553c0.439-0.862,1.022-1.628,1.644-2.346c1.157-2.394,2.434-4.717,3.607-7.095
		c2.418-3.519,3.95-7.534,6.025-11.252c1.229-2.698,2.753-5.259,4.014-7.949c1.947-3.312,2.673-7.167,4.724-10.43
		c0.279-0.575,0.575-1.133,0.886-1.676c0.998-2.362,1.748-4.844,3.144-7.015c0.295-0.806,0.527-1.628,0.702-2.458
		c1.828-2.801,2.25-6.249,4.174-8.97c-0.008-0.359-0.024-1.069-0.04-1.428c0.551-0.95,1.093-1.883,1.636-2.825
		c0.359-2.139,1.237-4.142,2.139-6.089c1.013-2.514,1.844-5.099,2.61-7.693c1.692-5.275,3.631-10.486,5.068-15.833
		c0.16-0.176,0.495-0.519,0.662-0.694c1.085-4.485,2.841-8.787,4.262-13.168c1.596-5.275,3.296-10.534,5.203-15.714
		c0.463-1.748,1.085-3.456,1.74-5.139c1.077-3.2,1.859-6.536,3.487-9.513c0.646-2.522,1.293-5.116,2.849-7.262
		c-0.016-0.327-0.04-0.982-0.048-1.309c1.636-2.147,1.852-4.956,3.36-7.175c1.077-3.631,2.658-7.167,4.326-10.59
		c0.223-1.125,0.67-2.179,1.117-3.224c1.516-2.466,2.53-5.171,3.559-7.853c0.295-0.567,0.591-1.125,0.894-1.676
		c1.548-2.905,2.905-5.898,4.373-8.842c1.014-2.035,1.955-4.118,3.136-6.065c0.383-0.862,0.758-1.716,1.133-2.578
		c3.966-6.193,6.959-12.928,11.013-19.066c2.665-3.958,4.764-8.276,7.669-12.067c3.887-5.922,7.669-11.939,11.955-17.565
		c2.027-3.456,4.996-6.297,6.911-9.784c3.711-3.527,6.169-8.132,9.856-11.691c1.053-2.849,4.158-4.19,5.562-6.831
		c1.676-2.841,4.964-4.397,6.329-7.446c8.97-9.289,18.267-18.267,27.317-27.477c0.734-0.814,1.596-1.5,2.666-1.828
		c2.33-2.051,4.19-4.653,6.919-6.217c4.094-3.767,8.523-7.103,12.769-10.694c1.788-0.519,2.753-2.219,4.206-3.256
		c2.123-1.476,4.158-3.08,6.337-4.485c5.698-4.206,11.548-8.228,17.565-11.971c1.253-0.95,2.61-1.764,3.871-2.705
		c2.234-1.053,4.23-2.53,6.424-3.647c3.352-2.219,7.015-3.887,10.327-6.169c3.28-1.476,6.48-3.152,9.728-4.701
		c1.109-0.583,2.227-1.141,3.36-1.676c0.902-0.511,1.804-1.005,2.721-1.5c0.846-0.391,1.692-0.782,2.546-1.165
		c1.836-1.045,3.727-2.019,5.762-2.626c2.211-0.646,4.062-2.282,6.408-2.522c2.729-1.764,5.906-2.53,8.755-4.062
		c2.953-0.902,5.945-1.74,8.763-3.025c5.331-2.091,10.925-3.312,16.328-5.179c1.029-0.726,2.29-0.694,3.503-0.806
		c3.903-1.149,7.933-2.753,12.083-2.426c0.287-0.231,0.862-0.694,1.149-0.918c2.019-0.144,4.389,0.686,6.105-0.774
		c2.817-0.088,5.642,0.032,8.467-0.12c0.351-0.184,1.053-0.559,1.405-0.742c5.937-0.064,11.883-0.072,17.828,0.024
		c3.607,2.043,8.204-0.231,12.051,1.269c2.346,1.038,5.219-0.447,7.382,1.165c3.208,0.064,6.576,0.503,9.521,1.716
		c2.642,0.072,5.379,0.551,7.781,1.676c3.894,0.471,7.462,2.314,11.213,3.408c0.902,0.216,1.78,0.511,2.642,0.894
		c2.713,0.67,5.355,1.596,7.781,3.025c3.081,0.854,5.834,2.522,8.683,3.942C769.269,70.366,772.198,71.371,774.416,73.454z
		 M558.719,166.635c-1.532,3.942-3.288,7.845-3.966,12.051c3.096-3.791,6.632-7.358,8.675-11.867
		c2.402-4.844,5.483-9.297,8.372-13.846c-1.006,0.072-1.955,0.391-2.61,1.181C565.223,157.848,561.001,161.607,558.719,166.635z
		 M550.483,179.795c0.455-4.573,2.649-8.707,3.839-13.096c-3.679,5.491-6.608,11.644-8.284,18.044
		C547.793,183.442,550.323,182.285,550.483,179.795z M473.622,313.181c7.486-7.015,14.453-15.841,15.219-26.471
		c-8.212,3.543-15.865,8.356-22.409,14.453c-7.853,8.755-12.498,19.967-14.333,31.507c3.28-2.689,5.922-6.073,9.481-8.436
		C465.378,320.3,470.039,317.339,473.622,313.181z M441.014,450.869c8.739-3.527,13.12-13.822,11.508-22.737
		c-0.439-4.716-1.907-9.321-4.038-13.535C442.977,425.779,440.591,438.452,441.014,450.869z M501.985,465.131
		c0.591-1.74,2.051-3.479,1.341-5.403c-3.049,2.386-6.392,4.565-8.603,7.821c-5.259,5.794-9.824,12.889-10.303,20.901
		C492.951,483.262,498.569,474.316,501.985,465.131z M429.809,785.756C428.548,788.11,432.467,785.884,429.809,785.756
		L429.809,785.756z"/>
</g>
<path opacity="0.47" fill="#5B4355" enable-background="new    " d="M116.35,1115.184
	C118.712,1113.884,116.526,1117.834,116.35,1115.184z"/>
</svg>
